<?xml version="1.0" encoding="UTF-8" standalone="no"?>
<svg width="1000" height="1000" viewBox="0 0 1000 1000" xmlns="http://www.w3.org/2000/svg"
  xmlns:svg="http://www.w3.org/2000/svg">
  <rect style="fill:#000000;fill-opacity:1;stroke:none;stroke-width:29.7707" width="1000" height="1000" x="0" y="0" />
  <path
    d="M 266.96184,714.69482 H 121.99999 L 233.29771,285.30544 H 445.58782 L 556.88555,714.69482 H 411.9237 l -15.80153,-68.01527 h -113.3588 z m 68.7023,-297.48096 -28.16794,120.22903 h 63.20612 L 343.2214,417.21386 Z"
    style="font-size:687.023px;font-family:'Changa One';stroke-width:5.72519;fill:#987017" />
  <path
    d="m 868.10645,591.71771 10.30534,115.41986 q -43.28245,17.8626 -108.54963,17.8626 -65.26719,0 -105.11452,-13.74046 -39.16032,-13.74046 -61.83208,-43.28245 -22.67175,-29.54199 -31.60305,-69.38932 -8.9313,-39.84734 -8.9313,-98.24429 0,-58.39696 8.9313,-98.2443 8.9313,-40.53435 31.60305,-70.07634 43.96948,-57.02291 161.45041,-57.02291 26.10688,0 61.14505,5.49618 35.7252,4.80916 52.90077,12.36642 L 857.8011,397.97722 q -44.65649,-9.61833 -81.75574,-9.61833 -37.09924,0 -51.52672,6.87023 -14.42749,6.87023 -14.42749,27.48092 v 180.00003 q 26.7939,5.49619 54.27482,5.49619 58.39696,0 103.74048,-16.48855 z"
    style="font-size:687.023px;font-family:'Changa One';stroke-width:5.72519;fill:#987017" />
</svg>
